<svg width="90" height="85" viewBox="0 0 90 85" fill="none" xmlns="http://www.w3.org/2000/svg">
<path d="M75.7812 7.21875C65.6133 7.26236 58.0547 8.6625 52.585 11.0823C48.5034 12.887 46.9062 14.2525 46.9062 18.8785V67.375C53.158 61.7354 58.7059 60.1562 80.5938 60.1562V7.21875H75.7812ZM13.2188 7.21875C23.3867 7.26236 30.9453 8.6625 36.415 11.0823C40.4966 12.887 42.0938 14.2525 42.0938 18.8785V67.375C35.842 61.7354 30.2941 60.1562 8.40625 60.1562V7.21875H13.2188Z" fill="#0B2F9F"/>
<path d="M10.7949 82V74.509H11.8949V82H10.7949ZM6.08686 82V74.509H7.18686V82H6.08686ZM6.81286 78.854V77.82H11.1249V78.854H6.81286ZM15.1205 81.318L12.9975 76.632H14.1525L16.0335 80.779L15.1205 81.318ZM13.7125 84.09L17.1005 76.632H18.2555L14.8675 84.09H13.7125ZM20.7626 82.11C20.2712 82.11 19.8386 81.9927 19.4646 81.758C19.0906 81.5233 18.8009 81.197 18.5956 80.779C18.3902 80.3537 18.2876 79.8623 18.2876 79.305C18.2876 78.7477 18.3902 78.26 18.5956 77.842C18.8009 77.424 19.0906 77.1013 19.4646 76.874C19.8386 76.6393 20.2712 76.522 20.7626 76.522C21.2466 76.522 21.6682 76.6393 22.0276 76.874C22.3869 77.1013 22.6656 77.424 22.8636 77.842C23.0689 78.26 23.1716 78.7477 23.1716 79.305C23.1716 79.8623 23.0689 80.3537 22.8636 80.779C22.6656 81.197 22.3869 81.5233 22.0276 81.758C21.6682 81.9927 21.2466 82.11 20.7626 82.11ZM20.9276 81.164C21.3822 81.164 21.7452 80.9953 22.0166 80.658C22.2952 80.3207 22.4346 79.8733 22.4346 79.316C22.4346 78.7587 22.2952 78.3113 22.0166 77.974C21.7452 77.6367 21.3822 77.468 20.9276 77.468C20.4729 77.468 20.1062 77.6367 19.8276 77.974C19.5489 78.3113 19.4096 78.755 19.4096 79.305C19.4096 79.8623 19.5489 80.3133 19.8276 80.658C20.1062 80.9953 20.4729 81.164 20.9276 81.164ZM22.6436 82L22.3796 80.922H22.4896V77.864H22.3796V74.509H23.4796V82H22.6436ZM25.727 76.632L25.991 78.084V82H24.891V76.632H25.727ZM25.826 78.535L25.562 78.414V77.611L25.661 77.49C25.7343 77.358 25.848 77.2187 26.002 77.072C26.1633 76.918 26.3503 76.7897 26.563 76.687C26.7757 76.577 26.992 76.522 27.212 76.522C27.322 76.522 27.4247 76.5293 27.52 76.544C27.6227 76.5587 27.6997 76.5843 27.751 76.621V77.611H27.41C26.9113 77.611 26.5483 77.688 26.321 77.842C26.0937 77.9887 25.9287 78.2197 25.826 78.535ZM30.022 82.154C29.604 82.154 29.2447 82.0807 28.944 81.934C28.6433 81.7873 28.4123 81.5783 28.251 81.307C28.097 81.0283 28.02 80.6983 28.02 80.317C28.02 79.965 28.1007 79.6533 28.262 79.382C28.4233 79.1033 28.6543 78.8833 28.955 78.722C29.2557 78.5607 29.6113 78.48 30.022 78.48C30.5353 78.48 30.946 78.5973 31.254 78.832C31.5693 79.0593 31.7893 79.3747 31.914 79.778H31.298V78.403C31.298 78.1757 31.221 77.9667 31.067 77.776C30.913 77.5853 30.6417 77.49 30.253 77.49C30.0477 77.49 29.8203 77.5157 29.571 77.567C29.329 77.611 29.076 77.6917 28.812 77.809L28.482 76.962C28.7827 76.8153 29.0943 76.7053 29.417 76.632C29.7397 76.5587 30.055 76.522 30.363 76.522C30.825 76.522 31.2063 76.6063 31.507 76.775C31.8077 76.9437 32.0313 77.171 32.178 77.457C32.3247 77.7357 32.398 78.051 32.398 78.403V82H31.606L31.331 81.021L31.914 80.856C31.782 81.2887 31.5473 81.615 31.21 81.835C30.8727 82.0477 30.4767 82.154 30.022 82.154ZM30.22 81.175C30.5427 81.175 30.803 81.1017 31.001 80.955C31.199 80.801 31.298 80.5883 31.298 80.317C31.298 80.0383 31.199 79.8257 31.001 79.679C30.803 79.5323 30.5427 79.459 30.22 79.459C29.8973 79.459 29.637 79.5323 29.439 79.679C29.241 79.8257 29.142 80.0383 29.142 80.317C29.142 80.5883 29.241 80.801 29.439 80.955C29.637 81.1017 29.8973 81.175 30.22 81.175ZM36.8525 82V74.509H39.3385C39.8445 74.509 40.2698 74.5823 40.6145 74.729C40.9665 74.8683 41.2341 75.0883 41.4175 75.389C41.6008 75.6823 41.6925 76.0563 41.6925 76.511C41.6925 76.8923 41.5971 77.2297 41.4065 77.523C41.2158 77.8163 40.9628 78.0437 40.6475 78.205C40.3395 78.3663 40.0058 78.447 39.6465 78.447L39.7235 77.875C40.1708 77.875 40.5595 77.9557 40.8895 78.117C41.2268 78.271 41.4908 78.4983 41.6815 78.799C41.8721 79.0997 41.9675 79.4663 41.9675 79.899C41.9675 80.581 41.7548 81.1017 41.3295 81.461C40.9115 81.8203 40.3101 82 39.5255 82H36.8525ZM37.9525 75.202V81.23L37.5125 80.944H39.5585C39.9691 80.944 40.2845 80.8377 40.5045 80.625C40.7318 80.405 40.8455 80.1263 40.8455 79.789C40.8455 79.4077 40.7355 79.118 40.5155 78.92C40.3028 78.722 39.9911 78.623 39.5805 78.623H37.5125V77.611H39.3715C39.7601 77.611 40.0571 77.5267 40.2625 77.358C40.4678 77.182 40.5705 76.929 40.5705 76.599C40.5705 76.2983 40.4641 76.0527 40.2515 75.862C40.0461 75.664 39.7528 75.565 39.3715 75.565H37.5565L37.9525 75.202ZM45.5298 82.11C44.9871 82.11 44.5068 81.9963 44.0888 81.769C43.6781 81.5343 43.3591 81.208 43.1318 80.79C42.9044 80.372 42.7908 79.8843 42.7908 79.327C42.7908 78.7623 42.9044 78.271 43.1318 77.853C43.3591 77.435 43.6781 77.1087 44.0888 76.874C44.5068 76.6393 44.9871 76.522 45.5298 76.522C46.0798 76.522 46.5601 76.6393 46.9708 76.874C47.3814 77.1087 47.7004 77.435 47.9278 77.853C48.1624 78.271 48.2798 78.7623 48.2798 79.327C48.2798 79.8843 48.1624 80.372 47.9278 80.79C47.7004 81.208 47.3814 81.5343 46.9708 81.769C46.5601 81.9963 46.0798 82.11 45.5298 82.11ZM45.5298 81.054C46.0211 81.054 46.4134 80.8963 46.7068 80.581C47.0074 80.2583 47.1578 79.8403 47.1578 79.327C47.1578 78.8063 47.0074 78.3847 46.7068 78.062C46.4134 77.7393 46.0211 77.578 45.5298 77.578C45.0458 77.578 44.6534 77.7393 44.3528 78.062C44.0594 78.3773 43.9128 78.7953 43.9128 79.316C43.9128 79.8367 44.0594 80.2583 44.3528 80.581C44.6534 80.8963 45.0458 81.054 45.5298 81.054ZM51.5776 82.11C51.0349 82.11 50.5546 81.9963 50.1366 81.769C49.7259 81.5343 49.4069 81.208 49.1796 80.79C48.9523 80.372 48.8386 79.8843 48.8386 79.327C48.8386 78.7623 48.9523 78.271 49.1796 77.853C49.4069 77.435 49.7259 77.1087 50.1366 76.874C50.5546 76.6393 51.0349 76.522 51.5776 76.522C52.1276 76.522 52.6079 76.6393 53.0186 76.874C53.4293 77.1087 53.7483 77.435 53.9756 77.853C54.2103 78.271 54.3276 78.7623 54.3276 79.327C54.3276 79.8843 54.2103 80.372 53.9756 80.79C53.7483 81.208 53.4293 81.5343 53.0186 81.769C52.6079 81.9963 52.1276 82.11 51.5776 82.11ZM51.5776 81.054C52.0689 81.054 52.4613 80.8963 52.7546 80.581C53.0553 80.2583 53.2056 79.8403 53.2056 79.327C53.2056 78.8063 53.0553 78.3847 52.7546 78.062C52.4613 77.7393 52.0689 77.578 51.5776 77.578C51.0936 77.578 50.7013 77.7393 50.4006 78.062C50.1073 78.3773 49.9606 78.7953 49.9606 79.316C49.9606 79.8367 50.1073 80.2583 50.4006 80.581C50.7013 80.8963 51.0936 81.054 51.5776 81.054ZM57.1855 82.099C56.7161 82.099 56.3421 81.9633 56.0635 81.692C55.7921 81.4133 55.6565 80.9843 55.6565 80.405V76.698V76.632L55.8655 75.422H56.7565V80.427C56.7565 80.6323 56.8078 80.7863 56.9105 80.889C57.0205 80.9917 57.1561 81.043 57.3175 81.043C57.4421 81.043 57.5521 81.0357 57.6475 81.021C57.7428 81.0063 57.8271 80.988 57.9005 80.966V81.989C57.8051 82.0183 57.6988 82.044 57.5815 82.066C57.4715 82.088 57.3395 82.099 57.1855 82.099ZM54.8315 77.644V76.632H57.9005V77.644H54.8315ZM61.4162 82.11C60.8662 82.11 60.3895 81.9927 59.9862 81.758C59.5828 81.516 59.2712 81.186 59.0512 80.768C58.8312 80.35 58.7212 79.866 58.7212 79.316C58.7212 78.766 58.8312 78.282 59.0512 77.864C59.2712 77.446 59.5828 77.1197 59.9862 76.885C60.3895 76.643 60.8662 76.522 61.4162 76.522C61.9368 76.522 62.4098 76.665 62.8352 76.951C63.2605 77.2297 63.5685 77.6037 63.7592 78.073L62.7142 78.513C62.5968 78.205 62.4208 77.974 62.1862 77.82C61.9515 77.6587 61.6838 77.578 61.3832 77.578C60.9432 77.578 60.5765 77.732 60.2832 78.04C59.9898 78.3407 59.8432 78.766 59.8432 79.316C59.8432 79.866 59.9898 80.295 60.2832 80.603C60.5765 80.9037 60.9432 81.054 61.3832 81.054C61.6838 81.054 61.9515 80.977 62.1862 80.823C62.4208 80.6617 62.5968 80.427 62.7142 80.119L63.7592 80.559C63.5612 81.0283 63.2495 81.406 62.8242 81.692C62.4062 81.9707 61.9368 82.11 61.4162 82.11ZM66.2124 82.154C65.7944 82.154 65.4351 82.0807 65.1344 81.934C64.8338 81.7873 64.6028 81.5783 64.4414 81.307C64.2874 81.0283 64.2104 80.6983 64.2104 80.317C64.2104 79.965 64.2911 79.6533 64.4524 79.382C64.6138 79.1033 64.8448 78.8833 65.1454 78.722C65.4461 78.5607 65.8018 78.48 66.2124 78.48C66.7258 78.48 67.1364 78.5973 67.4444 78.832C67.7598 79.0593 67.9798 79.3747 68.1044 79.778H67.4884V78.403C67.4884 78.1757 67.4114 77.9667 67.2574 77.776C67.1034 77.5853 66.8321 77.49 66.4434 77.49C66.2381 77.49 66.0108 77.5157 65.7614 77.567C65.5194 77.611 65.2664 77.6917 65.0024 77.809L64.6724 76.962C64.9731 76.8153 65.2848 76.7053 65.6074 76.632C65.9301 76.5587 66.2454 76.522 66.5534 76.522C67.0154 76.522 67.3968 76.6063 67.6974 76.775C67.9981 76.9437 68.2218 77.171 68.3684 77.457C68.5151 77.7357 68.5884 78.051 68.5884 78.403V82H67.7964L67.5214 81.021L68.1044 80.856C67.9724 81.2887 67.7378 81.615 67.4004 81.835C67.0631 82.0477 66.6671 82.154 66.2124 82.154ZM66.4104 81.175C66.7331 81.175 66.9934 81.1017 67.1914 80.955C67.3894 80.801 67.4884 80.5883 67.4884 80.317C67.4884 80.0383 67.3894 79.8257 67.1914 79.679C66.9934 79.5323 66.7331 79.459 66.4104 79.459C66.0878 79.459 65.8274 79.5323 65.6294 79.679C65.4314 79.8257 65.3324 80.0383 65.3324 80.317C65.3324 80.5883 65.4314 80.801 65.6294 80.955C65.8274 81.1017 66.0878 81.175 66.4104 81.175ZM69.9545 82V76.632H70.7905L71.0215 77.578L70.7465 77.611C70.9445 77.3763 71.1535 77.1783 71.3735 77.017C71.5935 76.8557 71.8282 76.7347 72.0775 76.654C72.3268 76.566 72.5872 76.522 72.8585 76.522C73.2398 76.522 73.5405 76.588 73.7605 76.72C73.9805 76.8447 74.1418 77.017 74.2445 77.237C74.3472 77.4497 74.4132 77.6917 74.4425 77.963C74.4718 78.2343 74.4865 78.513 74.4865 78.799V82H73.3865V78.568C73.3865 78.1867 73.2985 77.93 73.1225 77.798C72.9538 77.666 72.7522 77.6 72.5175 77.6C72.1802 77.6 71.8575 77.7063 71.5495 77.919C71.2415 78.1243 71.0178 78.3737 70.8785 78.667V78.051H71.0545V82H69.9545ZM76.8185 82V78.568C76.8185 78.1867 76.7305 77.93 76.5545 77.798C76.3858 77.666 76.1842 77.6 75.9495 77.6C75.6122 77.6 75.2895 77.7063 74.9815 77.919C74.6735 78.1243 74.4498 78.3737 74.3105 78.667L74.1785 77.611C74.3765 77.3763 74.5855 77.1783 74.8055 77.017C75.0255 76.8557 75.2602 76.7347 75.5095 76.654C75.7588 76.566 76.0192 76.522 76.2905 76.522C76.6718 76.522 76.9725 76.588 77.1925 76.72C77.4125 76.8447 77.5738 77.017 77.6765 77.237C77.7792 77.4497 77.8452 77.6917 77.8745 77.963C77.9038 78.2343 77.9185 78.513 77.9185 78.799V82H76.8185ZM81.9957 82.11C81.5117 82.11 81.09 81.9963 80.7307 81.769C80.3714 81.5343 80.089 81.208 79.8837 80.79C79.6857 80.372 79.5867 79.8843 79.5867 79.327C79.5867 78.7623 79.6857 78.271 79.8837 77.853C80.089 77.435 80.3714 77.1087 80.7307 76.874C81.09 76.6393 81.5117 76.522 81.9957 76.522C82.4944 76.522 82.927 76.6393 83.2937 76.874C83.6677 77.1087 83.9574 77.435 84.1627 77.853C84.368 78.271 84.4707 78.7623 84.4707 79.327C84.4707 79.8843 84.368 80.372 84.1627 80.79C83.9574 81.208 83.6677 81.5343 83.2937 81.769C82.927 81.9963 82.4944 82.11 81.9957 82.11ZM79.2787 84.09V76.632H80.1147L80.3787 77.71H80.2687V80.768H80.3787V84.09H79.2787ZM81.8307 81.164C82.2854 81.164 82.652 80.9953 82.9307 80.658C83.2094 80.3207 83.3487 79.877 83.3487 79.327C83.3487 78.7697 83.2094 78.3223 82.9307 77.985C82.652 77.6403 82.2854 77.468 81.8307 77.468C81.3834 77.468 81.0204 77.6367 80.7417 77.974C80.463 78.3113 80.3237 78.7587 80.3237 79.316C80.3237 79.8733 80.463 80.3207 80.7417 80.658C81.0204 80.9953 81.3834 81.164 81.8307 81.164Z" fill="black"/>
</svg>
